HIERARCHY
ROOT Hips
{
	OFFSET -0.001795 -0.223333 0.028219
	CHANNELS 6 Xposition Yposition Zposition Zrotation Yrotation Xrotation 
	JOINT LeftUpLeg
	{
		OFFSET 0.069520 -0.091406 -0.006815
		CHANNELS 3 Zrotation Yrotation Xrotation
		JOINT LeftLeg
		{
			OFFSET 0.034277 -0.375199 -0.004496
			CHANNELS 3 Zrotation Yrotation Xrotation
			JOINT LeftFoot
			{
				OFFSET -0.013596 -0.397961 -0.043693
				CHANNELS 3 Zrotation Yrotation Xrotation
				JOINT LeftToe
				{
					OFFSET 0.026358 -0.055791 0.119288
					CHANNELS 3 Zrotation Yrotation Xrotation
					End Site
					{
						OFFSET 0.000000 0.000000 0.000000
					}
				}
			}
		}
	}
	JOINT RightUpLeg
	{
		OFFSET -0.067670 -0.090522 -0.004320
		CHANNELS 3 Zrotation Yrotation Xrotation
		JOINT RightLeg
		{
			OFFSET -0.038290 -0.382569 -0.008850
			CHANNELS 3 Zrotation Yrotation Xrotation
			JOINT RightFoot
			{
				OFFSET 0.015774 -0.398415 -0.042312
				CHANNELS 3 Zrotation Yrotation Xrotation
				JOINT RightToe
				{
					OFFSET -0.025372 -0.048144 0.123348
					CHANNELS 3 Zrotation Yrotation Xrotation
					End Site
					{
						OFFSET 0.000000 0.000000 0.000000
					}
				}
			}
		}
	}
	JOINT Spine
	{
		OFFSET -0.002533 0.108963 -0.026696
		CHANNELS 3 Zrotation Yrotation Xrotation
		JOINT Spine1
		{
			OFFSET 0.005487 0.135180 0.001092
			CHANNELS 3 Zrotation Yrotation Xrotation
			JOINT Spine2
			{
				OFFSET 0.001457 0.052922 0.025425
				CHANNELS 3 Zrotation Yrotation Xrotation
				JOINT Neck
				{
					OFFSET -0.002778 0.213870 -0.042857
					CHANNELS 3 Zrotation Yrotation Xrotation
					JOINT Head
					{
						OFFSET 0.005152 0.064970 0.051349
						CHANNELS 3 Zrotation Yrotation Xrotation
						End Site
						{
							OFFSET 0.000000 0.000000 0.000000
						}
					}
				}
				JOINT LeftShoulder
				{
					OFFSET 0.078845 0.121749 -0.034090
					CHANNELS 3 Zrotation Yrotation Xrotation
					JOINT LeftArm
					{
						OFFSET 0.090977 0.030469 -0.008868
						CHANNELS 3 Zrotation Yrotation Xrotation
						JOINT LeftForeArm
						{
							OFFSET 0.259612 -0.012772 -0.027456
							CHANNELS 3 Zrotation Yrotation Xrotation
							JOINT LeftHand
							{
								OFFSET 0.249234 0.008986 -0.001171
								CHANNELS 3 Zrotation Yrotation Xrotation
								End Site
								{
									OFFSET 0.000000 0.000000 0.000000
								}
							}
						}
					}
				}
				JOINT RightShoulder
				{
					OFFSET -0.081759 0.118833 -0.038615
					CHANNELS 3 Zrotation Yrotation Xrotation
					JOINT RightArm
					{
						OFFSET -0.096012 0.032551 -0.009143
						CHANNELS 3 Zrotation Yrotation Xrotation
						JOINT RightForeArm
						{
							OFFSET -0.253742 -0.013329 -0.021401
							CHANNELS 3 Zrotation Yrotation Xrotation
							JOINT RightHand
							{
								OFFSET -0.255298 0.007772 -0.005559
								CHANNELS 3 Zrotation Yrotation Xrotation
								End Site
								{
									OFFSET 0.000000 0.000000 0.000000
								}
							}
						}
					}
				}
			}
		}
	}
}
MOTION
Frames: 7
Frame Time: 0.050000
0.913278 0.961959 0.664760 -13.898007 83.889000 -18.453829 0.803374 -0.628059 -7.476628 -0.094294 -2.500306 14.916554 1.537140 8.235730 11.068018 0.000000 0.000000 0.000000 -7.006626 -3.007041 -2.458739 -28.113881 -9.425126 49.407499 20.251910 24.150413 21.774014 0.000000 0.000000 0.000000 3.030204 -2.067036 13.980275 -3.988450 2.045131 -25.595751 2.409344 14.896901 33.614625 14.039277 4.619668 -26.059668 0.000000 0.000000 0.000000 -11.010845 -8.795954 -15.654594 -48.291039 11.206961 -9.954300 -91.045678 -58.958659 40.084681 0.000000 0.000000 0.000000 23.456428 -11.145137 11.558769 55.406438 22.533099 3.327297 14.791654 55.577532 17.875148 0.000000 0.000000 0.000000 
0.953429 0.969147 0.655270 -22.504655 84.890455 -27.774341 -0.486266 -0.274411 -2.593200 0.945322 -1.892713 12.299306 1.778302 7.418647 10.225698 0.000000 0.000000 0.000000 -4.625500 -2.538419 -7.055431 -23.755263 -10.977381 48.076708 15.376832 20.867532 14.612585 0.000000 0.000000 0.000000 3.577726 -2.434835 14.870036 -3.604729 2.055236 -25.578406 1.826524 13.780394 33.362072 14.062063 4.200765 -24.867790 0.000000 0.000000 0.000000 -10.696832 -9.125632 -15.006114 -49.364084 10.253211 -10.044712 -85.747247 -60.313301 37.171765 0.000000 0.000000 0.000000 22.915578 -10.828092 11.181570 56.713836 22.537863 4.120403 14.398798 55.847306 17.765994 0.000000 0.000000 0.000000 
0.993215 0.972439 0.647966 -40.656124 86.283882 -46.191130 -1.117547 -0.368185 1.544047 1.623600 -1.343154 9.584843 1.569069 6.792705 10.197140 0.000000 0.000000 0.000000 -2.966361 -2.664435 -11.366780 -16.538044 -11.169182 41.743860 10.352083 14.900892 10.654033 0.000000 0.000000 0.000000 4.256729 -2.652871 15.111426 -3.276073 1.953561 -26.185978 0.712601 12.137881 33.571712 13.688055 4.156595 -24.343943 0.000000 0.000000 0.000000 -9.958952 -8.595662 -14.190916 -49.738665 8.683261 -10.057739 -79.794135 -62.371046 34.800481 0.000000 0.000000 0.000000 22.930763 -11.308392 10.591136 57.249591 21.878120 4.144913 16.433537 55.309271 18.678040 0.000000 0.000000 0.000000 
1.033049 0.972732 0.642757 -54.612268 86.992349 -60.893013 -1.905694 -0.871328 6.488745 1.780151 -0.915093 7.145521 2.223319 6.259083 8.891769 0.000000 0.000000 0.000000 -1.966821 -2.922341 -13.961962 -9.375118 -8.708513 31.687990 6.287641 8.955648 8.644480 0.000000 0.000000 0.000000 4.510938 -2.845616 15.609624 -3.187351 1.825305 -27.217221 0.377829 11.910247 34.694292 14.560428 3.744254 -24.326731 0.000000 0.000000 0.000000 -8.851157 -9.093910 -13.240482 -49.791986 6.590936 -9.528539 -74.439431 -63.243453 30.891168 0.000000 0.000000 0.000000 23.147627 -12.242920 10.182734 58.221271 21.829838 4.484019 18.497794 54.215529 19.447828 0.000000 0.000000 0.000000 
1.073124 0.970377 0.639130 -95.840201 87.625821 -102.382360 -3.100403 -1.695919 11.069079 2.323214 -0.525122 3.935171 2.139215 6.405188 9.441683 0.000000 0.000000 0.000000 -1.570237 -3.100332 -14.672985 -3.805547 -4.959238 19.434817 2.537174 3.382710 9.539099 0.000000 0.000000 0.000000 4.623473 -2.693934 15.016523 -3.726651 1.978126 -26.126461 0.033115 9.850929 33.848872 13.375268 4.182302 -23.932041 0.000000 0.000000 0.000000 -7.855625 -9.853493 -11.775316 -50.689186 5.553749 -9.868879 -70.761521 -64.508840 28.936108 0.000000 0.000000 0.000000 21.395710 -11.286527 9.598166 59.832259 19.638174 4.681488 20.418572 52.943235 19.687494 0.000000 0.000000 0.000000 
1.113672 0.967298 0.637270 -138.985692 87.133406 -145.467733 -4.266590 -2.492099 14.341232 2.750229 -0.419836 2.764338 2.373018 5.784906 8.497333 0.000000 0.000000 0.000000 -1.741861 -3.534595 -15.206776 -1.307108 -2.038998 8.693685 1.400015 2.021585 11.603757 0.000000 0.000000 0.000000 4.625602 -2.596868 14.705467 -4.027797 1.837625 -26.741685 -0.401570 8.760775 34.526337 13.853965 3.820826 -23.415837 0.000000 0.000000 0.000000 -6.900267 -10.699036 -11.026464 -50.578505 4.576401 -9.713459 -68.475302 -66.228874 27.910986 0.000000 0.000000 0.000000 21.245511 -11.569987 9.617577 60.304294 19.542472 5.015541 20.501697 51.783792 18.865016 0.000000 0.000000 0.000000 
1.154998 0.963291 0.637298 -150.827264 87.043415 -156.994063 -5.433426 -3.288601 17.456328 3.114330 -0.309207 1.357175 2.865901 6.325301 8.514709 0.000000 0.000000 0.000000 -1.939901 -3.637514 -15.265893 0.659515 -1.300713 2.377210 0.973890 1.860475 12.817505 0.000000 0.000000 0.000000 5.150464 -2.449879 13.908068 -4.796842 1.887328 -26.243586 -0.437635 8.821351 34.184419 13.741370 3.298284 -21.906054 0.000000 0.000000 0.000000 -6.231317 -11.405997 -10.160141 -50.571491 4.409453 -9.999760 -66.888851 -66.145602 26.412257 0.000000 0.000000 0.000000 21.840633 -11.002688 10.695878 60.851596 20.702599 5.511221 16.448647 49.610950 15.147028 0.000000 0.000000 0.000000 
